<svg xmlns="http://www.w3.org/2000/svg" width="32" height="32" viewBox="0 0 24 24"><path fill="#BEBEBE" d="M21.97 9.47a1.07 1.07 0 0 1-.73 1.01l-1.88.62a4 4 0 0 0-2.53 2.54l-.65 1.87a1.09 1.09 0 0 1-.39.52a1.06 1.06 0 0 1-1.63-.54l-.63-1.88a3.931 3.931 0 0 0-1-1.56a4.062 4.062 0 0 0-1.57-1l-1.88-.63a1.05 1.05 0 0 1-.531-.38a1.08 1.08 0 0 1 0-1.25a1.05 1.05 0 0 1 .54-.39l1.87-.63a4.001 4.001 0 0 0 1.59-1c.45-.443.793-.984 1-1.58l.62-1.85a1 1 0 0 1 .36-.53a1 1 0 0 1 .62-.22a1.1 1.1 0 0 1 .63.18a1 1 0 0 1 .41.51l.63 1.91c.207.596.55 1.137 1 1.58a4 4 0 0 0 1.58 1l1.87.66a1 1 0 0 1 .52.38c.13.194.194.425.18.66M12.1 16.4a1 1 0 0 1-.18.57a1 1 0 0 1-.48.35l-1.35.45a2.63 2.63 0 0 0-1 .64a2.711 2.711 0 0 0-.64 1l-.47 1.34a1 1 0 0 1-.35.48a1 1 0 0 1-1.15 0a1 1 0 0 1-.35-.48l-.44-1.34a2.67 2.67 0 0 0-.641-1a2.71 2.71 0 0 0-1-.64l-1.35-.44a1 1 0 0 1-.48-.36a1 1 0 0 1-.19-.57a1 1 0 0 1 .68-.93l1.34-.44a2.78 2.78 0 0 0 1.64-1.64l.45-1.32a1 1 0 0 1 .33-.48a1 1 0 0 1 1.14-.05c.171.118.303.285.38.48l.45 1.37a2.78 2.78 0 0 0 1.64 1.64l1.34.47a.89.89 0 0 1 .47.35a.94.94 0 0 1 .21.55"/></svg>